<?xml version="1.0" standalone="no"?>
<!DOCTYPE svg PUBLIC "-//W3C//DTD SVG 20010904//EN"
 "http://www.w3.org/TR/2001/REC-SVG-20010904/DTD/svg10.dtd">
<svg version="1.0" xmlns="http://www.w3.org/2000/svg"
 width="536.000000pt" height="536.000000pt" viewBox="0 0 536.000000 536.000000"
 preserveAspectRatio="xMidYMid meet">
<metadata>
Created by potrace 1.11, written by Peter Selinger 2001-2013
</metadata>
<g transform="translate(0.000000,536.000000) scale(0.100000,-0.100000)"
fill="#000000" stroke="none">
<path d="M1825 5194 c-27 -7 -62 -14 -76 -14 -14 0 -43 -11 -63 -25 -25 -17
-45 -23 -64 -19 -15 2 -66 -6 -115 -20 -48 -13 -101 -22 -118 -19 -17 2 -48
-3 -70 -11 -21 -9 -73 -16 -116 -17 -47 -1 -86 -7 -99 -16 -12 -7 -43 -16 -70
-18 -102 -10 -148 -18 -182 -32 -19 -8 -62 -16 -95 -18 -83 -6 -103 -10 -254
-58 -80 -25 -133 -47 -133 -55 0 -7 9 -22 20 -34 23 -24 26 -43 8 -35 -7 2
-22 1 -32 -3 -16 -5 -3 -17 70 -61 49 -31 118 -69 154 -87 85 -41 154 -81 270
-156 52 -34 121 -77 152 -96 46 -27 56 -38 53 -54 -22 -102 -42 -266 -33 -266
3 0 30 11 61 24 l55 25 6 -34 c4 -20 16 -39 27 -46 18 -9 20 -8 15 8 -5 16 4
25 48 46 30 15 61 27 68 27 7 0 51 14 97 30 l83 29 -7 -37 c-18 -97 -22 -142
-19 -202 5 -91 40 -246 68 -305 14 -27 27 -65 30 -83 5 -28 34 -86 91 -180 6
-9 23 -38 38 -63 29 -50 162 -176 252 -240 30 -22 55 -47 55 -56 0 -17 -58
-74 -79 -78 -14 -2 -38 -52 -30 -60 2 -1 109 -55 237 -119 232 -116 234 -117
218 -139 -48 -66 -60 -102 -60 -177 0 -64 4 -83 27 -125 68 -122 215 -174 352
-123 l49 18 41 -39 c22 -21 70 -67 106 -102 37 -35 100 -95 140 -134 69 -66
73 -73 81 -127 4 -31 9 -62 10 -69 2 -7 -7 -18 -20 -24 l-22 -12 21 -26 c13
-18 30 -27 49 -27 24 0 27 -3 23 -23 -3 -12 -27 -56 -52 -97 -25 -41 -100
-169 -166 -285 l-120 -210 -47 -3 c-42 -3 -53 -9 -95 -53 -56 -58 -74 -101
-61 -144 12 -43 10 -118 -3 -110 -5 4 -14 18 -19 31 -11 28 -31 30 -65 8 -15
-10 -22 -23 -20 -35 5 -23 -6 -24 -47 -3 -29 15 -32 15 -57 -3 -14 -11 -33
-34 -41 -51 -14 -29 -16 -30 -42 -16 -25 13 -28 12 -47 -12 -12 -15 -21 -35
-21 -45 0 -10 -14 -31 -31 -47 -41 -38 -42 -59 -6 -110 23 -31 35 -41 46 -35
23 11 214 15 229 5 10 -7 9 -18 -6 -58 -11 -27 -19 -66 -19 -87 1 -21 -4 -42
-11 -46 -8 -5 -4 -17 16 -40 27 -32 28 -32 122 -33 87 -2 163 6 183 19 5 3 71
4 147 4 98 -1 146 2 162 11 13 7 24 14 26 14 8 3 -47 202 -62 222 -18 25 12
34 129 36 93 2 118 -1 124 -12 7 -13 12 -12 34 4 14 10 32 31 41 45 14 24 14
28 -4 44 -12 11 -20 31 -20 50 0 38 -33 84 -58 81 -24 -4 -57 9 -58 23 -1 6
-2 16 -3 21 -2 18 -44 28 -69 17 -19 -9 -27 -7 -47 16 -25 27 -55 29 -97 6
-27 -14 -40 -2 -27 23 13 24 6 136 -10 166 -8 15 13 59 114 232 69 117 125
214 125 216 0 2 16 28 35 58 19 30 35 58 35 61 0 19 48 70 96 100 92 59 115
125 73 207 -14 28 -18 43 -10 46 13 4 15 42 2 42 -5 0 -11 9 -14 20 -4 16 -12
19 -39 16 -18 -2 -42 3 -54 10 -11 8 -49 16 -85 19 -72 6 -40 -19 -292 226
l-138 134 11 53 c7 29 9 74 6 100 l-5 47 112 -1 c93 -1 132 4 226 27 90 23
129 28 185 25 78 -6 147 -14 186 -23 14 -3 93 -7 175 -8 177 -4 305 18 520 89
208 69 339 165 497 364 60 75 164 302 174 382 3 19 13 92 24 161 10 70 22 155
26 190 10 87 11 302 1 364 -30 197 -40 314 -27 330 14 16 -35 35 -92 35 -32 0
-49 -8 -83 -38 -24 -21 -113 -81 -197 -132 -84 -51 -207 -131 -273 -178 -104
-74 -219 -142 -241 -142 -8 0 -182 -108 -206 -128 -14 -12 -17 -11 -23 10 -48
165 -130 401 -176 510 -32 75 -61 152 -64 170 -9 52 -16 71 -39 103 -11 16
-19 38 -18 48 4 23 -5 18 -69 -35 -26 -21 -52 -38 -58 -38 -6 0 -11 -12 -11
-27 0 -30 -13 -46 -138 -179 -43 -44 -108 -116 -147 -160 -38 -43 -113 -124
-165 -179 -52 -55 -120 -129 -150 -165 -87 -101 -196 -225 -246 -277 -25 -26
-70 -80 -101 -119 l-57 -71 -35 9 c-42 12 -167 78 -207 110 -51 41 -191 190
-191 203 0 7 -16 45 -36 83 -36 67 -37 74 -37 173 0 118 9 162 48 236 l27 52
155 37 c85 20 166 41 179 46 23 8 23 9 6 28 -18 19 -17 20 24 14 l42 -6 -72
124 c-39 67 -75 128 -79 133 -8 11 -28 45 -95 165 -23 41 -79 135 -124 209
-44 74 -81 138 -81 142 0 12 -14 10 -75 -7z"/>
</g>
</svg>
